<?xml version="1.0" standalone="no"?>
<!DOCTYPE svg PUBLIC "-//W3C//DTD SVG 20010904//EN"
 "http://www.w3.org/TR/2001/REC-SVG-20010904/DTD/svg10.dtd">
<svg version="1.0" xmlns="http://www.w3.org/2000/svg"
 width="800.000000pt" height="800.000000pt" viewBox="0 0 800.000000 800.000000"
 preserveAspectRatio="xMidYMid meet">
<metadata>
Created by potrace 1.14, written by Peter Selinger 2001-2017
</metadata>
<g transform="translate(0.000000,800.000000) scale(0.100000,-0.100000)"
fill="#000000" stroke="none">
<path d="M3061 6834 c-170 -29 -312 -105 -436 -233 -65 -66 -137 -176 -165
-250 l-21 -58 -84 -7 c-226 -17 -419 -151 -520 -361 -74 -152 -74 -151 -72
-750 l2 -530 28 -58 c52 -104 150 -175 259 -185 l58 -5 0 -1544 c0 -1696 -4
-1585 60 -1618 26 -13 222 -15 1665 -15 1490 0 1639 1 1664 16 57 34 56 20 58
524 1 256 2 477 2 491 l1 25 338 1 c279 0 348 3 401 17 150 39 290 148 357
279 69 135 67 102 68 1012 1 609 -2 839 -11 895 -27 162 -139 318 -281 393
-124 66 -156 70 -534 70 -336 0 -338 0 -339 21 -1 12 -1 91 -1 177 -1 151 0
156 24 182 63 68 85 351 39 511 -129 457 -608 690 -1016 495 l-39 -19 -59 65
c-104 115 -221 186 -373 225 -108 28 -261 26 -364 -5 -8 -2 -37 16 -65 41
-180 165 -415 237 -644 198z m3250 -2147 c66 -32 132 -99 162 -165 l22 -47 0
-865 0 -865 -22 -47 c-30 -66 -96 -133 -162 -165 l-56 -28 -347 -3 c-192 -2
-348 1 -349 5 -1 11 -1 2173 0 2196 1 17 19 18 349 15 l347 -3 56 -28z"/>
</g>
</svg>
